<svg width="194" height="194" viewBox="0 0 194 194" fill="none" xmlns="http://www.w3.org/2000/svg">
<circle cx="97" cy="97" r="97" fill="#FF9B18"/>
<path opacity="0.24" fill-rule="evenodd" clip-rule="evenodd" d="M100.373 193.942L40.5 134.5V72.5L56 62.5L116.5 123.5L126 113L151 134.5V65.5L193.395 107.895C188.103 155.242 148.73 192.29 100.373 193.942Z" fill="black"/>
<path d="M30.9813 96.36C33.3813 96.36 35.1146 95.6667 36.1813 94.28C37.2479 92.8933 37.7813 91.08 37.7813 88.84V76.76C37.7813 74.4667 38.0746 72.44 38.6613 70.68C39.2479 68.8667 40.2079 67.3467 41.5413 66.12C42.9279 64.8933 44.7413 63.96 46.9813 63.32C49.2746 62.68 52.1013 62.36 55.4613 62.36H57.0613V71.88H55.0613C52.6613 71.88 51.0346 72.4133 50.1813 73.48C49.3813 74.5467 48.9813 76.2 48.9813 78.44V89.08C48.9813 91.8533 48.6079 94.2 47.8613 96.12C47.1146 98.04 45.6213 99.6933 43.3813 101.08C45.6213 102.467 47.1146 104.12 47.8613 106.04C48.6079 107.96 48.9813 110.307 48.9813 113.08V123.72C48.9813 125.96 49.3813 127.613 50.1813 128.68C51.0346 129.747 52.6613 130.28 55.0613 130.28H57.0613V139.8H55.4613C52.1013 139.8 49.2746 139.48 46.9813 138.84C44.7413 138.2 42.9279 137.267 41.5413 136.04C40.2079 134.813 39.2479 133.293 38.6613 131.48C38.0746 129.72 37.7813 127.693 37.7813 125.4V113.32C37.7813 111.08 37.2479 109.267 36.1813 107.88C35.1146 106.493 33.3813 105.8 30.9813 105.8V96.36ZM79.9488 118.68C79.9488 121.08 79.1754 122.92 77.6288 124.2C76.1354 125.427 74.4288 126.04 72.5088 126.04C70.5888 126.04 68.8554 125.427 67.3088 124.2C65.8154 122.92 65.0688 121.08 65.0688 118.68C65.0688 116.28 65.8154 114.467 67.3088 113.24C68.8554 111.96 70.5888 111.32 72.5088 111.32C74.4288 111.32 76.1354 111.96 77.6288 113.24C79.1754 114.467 79.9488 116.28 79.9488 118.68ZM104.436 118.68C104.436 121.08 103.663 122.92 102.116 124.2C100.623 125.427 98.9163 126.04 96.9963 126.04C95.0763 126.04 93.3429 125.427 91.7963 124.2C90.3029 122.92 89.5563 121.08 89.5563 118.68C89.5563 116.28 90.3029 114.467 91.7963 113.24C93.3429 111.96 95.0763 111.32 96.9963 111.32C98.9163 111.32 100.623 111.96 102.116 113.24C103.663 114.467 104.436 116.28 104.436 118.68ZM128.924 118.68C128.924 121.08 128.15 122.92 126.604 124.2C125.11 125.427 123.404 126.04 121.484 126.04C119.564 126.04 117.83 125.427 116.284 124.2C114.79 122.92 114.044 121.08 114.044 118.68C114.044 116.28 114.79 114.467 116.284 113.24C117.83 111.96 119.564 111.32 121.484 111.32C123.404 111.32 125.11 111.96 126.604 113.24C128.15 114.467 128.924 116.28 128.924 118.68ZM163.011 105.8C160.611 105.8 158.878 106.493 157.811 107.88C156.745 109.267 156.211 111.08 156.211 113.32V125.4C156.211 127.693 155.918 129.72 155.331 131.48C154.745 133.293 153.758 134.813 152.371 136.04C151.038 137.267 149.225 138.2 146.931 138.84C144.691 139.48 141.891 139.8 138.531 139.8H136.931V130.28H138.931C141.331 130.28 142.931 129.747 143.731 128.68C144.585 127.613 145.011 125.96 145.011 123.72V113.08C145.011 110.307 145.385 107.96 146.131 106.04C146.878 104.12 148.371 102.467 150.611 101.08C148.371 99.6933 146.878 98.04 146.131 96.12C145.385 94.2 145.011 91.8533 145.011 89.08V78.44C145.011 76.2 144.585 74.5467 143.731 73.48C142.931 72.4133 141.331 71.88 138.931 71.88H136.931V62.36H138.531C141.891 62.36 144.691 62.68 146.931 63.32C149.225 63.96 151.038 64.8933 152.371 66.12C153.758 67.3467 154.745 68.8667 155.331 70.68C155.918 72.44 156.211 74.4667 156.211 76.76V88.84C156.211 91.08 156.745 92.8933 157.811 94.28C158.878 95.6667 160.611 96.36 163.011 96.36V105.8Z" fill="white"/>
</svg>
