<svg width="194" height="194" viewBox="0 0 194 194" fill="none" xmlns="http://www.w3.org/2000/svg">
<circle cx="97" cy="97" r="97" fill="#FF9B18"/>
<path opacity="0.24" fill-rule="evenodd" clip-rule="evenodd" d="M118.111 191.696L60.5 134.5L131.5 57.5L191.771 117.771C183.746 154.557 154.848 183.543 118.111 191.696Z" fill="black"/>
<path d="M96 47C74.4609 47 57 55.5066 57 66V126.5C57 136.5 74.0001 146.5 96 146.5C118 146.5 135 136.9 135 126.5V66C135 55.5066 117.539 47 96 47Z" fill="#C4C4C4"/>
<path fill-rule="evenodd" clip-rule="evenodd" d="M107 145.669V84.1999C77.4405 87.9442 57.5894 76.8344 57.0129 65.5065C57.0043 65.6705 57 65.835 57 66V126.5C57 136.5 74.0001 146.5 96 146.5C99.8403 146.5 103.528 146.207 107 145.669Z" fill="white"/>
<ellipse cx="96" cy="66" rx="39" ry="19" fill="white"/>
<ellipse cx="96" cy="66" rx="31" ry="15" fill="#313131"/>
<path d="M158 96.5C158 76 141 70.5 135 70.5V79.5C139.5 80.1667 149.5 84.5 149.5 96.5C149.5 108.5 139.5 112.333 135 113.5V123.5C141 123.5 158 117 158 96.5Z" fill="#C4C4C4"/>
</svg>
