<svg width="120" height="120" viewBox="0 0 120 120" fill="none" xmlns="http://www.w3.org/2000/svg">
<path d="M120 60C120 26.8594 93.1406 0 60 0C26.8594 0 0 26.8594 0 60C0 89.9531 21.9375 114.773 50.625 119.273V77.3438H35.3906V60H50.625V46.7813C50.625 31.7461 59.5781 23.4375 73.2891 23.4375C79.8516 23.4375 86.7188 24.6094 86.7188 24.6094V39.375H79.1484C71.6953 39.375 69.375 44.0039 69.375 48.75V60H86.0156L83.3555 77.3438H69.375V119.273C98.0625 114.773 120 89.9531 120 60Z" fill="#1877F2"/>
<path d="M83.3555 77.3438L86.0156 60H69.375V48.75C69.375 44.0039 71.6953 39.375 79.1484 39.375H86.7188V24.6094C86.7188 24.6094 79.8516 23.4375 73.2891 23.4375C59.5781 23.4375 50.625 31.7461 50.625 46.7813V60H35.3906V77.3438H50.625V119.273C53.6836 119.754 56.8125 120 60 120C63.1875 120 66.3164 119.754 69.375 119.273V77.3438H83.3555Z" fill="white"/>
</svg>
