<svg width="295" height="295" viewBox="0 0 295 295" fill="none" xmlns="http://www.w3.org/2000/svg">
<circle cx="147.5" cy="147.5" r="147.5" fill="#FF9B18"/>
<path d="M96.86 122.948C87.8494 122.948 81.3187 125.469 77.268 130.512C73.3 135.472 71.316 142.292 71.316 150.972C71.316 155.188 71.812 159.032 72.804 162.504C73.796 165.893 75.284 168.828 77.268 171.308C79.252 173.788 81.732 175.731 84.708 177.136C87.684 178.459 91.156 179.12 95.124 179.12C97.2734 179.12 99.092 179.079 100.58 178.996C102.151 178.913 103.515 178.748 104.672 178.5V148.616H124.016V191.148C121.701 192.057 117.981 193.008 112.856 194C107.731 195.075 101.407 195.612 93.884 195.612C87.436 195.612 81.5667 194.62 76.276 192.636C71.068 190.652 66.604 187.759 62.884 183.956C59.164 180.153 56.2707 175.483 54.204 169.944C52.22 164.405 51.228 158.081 51.228 150.972C51.228 143.78 52.344 137.415 54.576 131.876C56.808 126.337 59.8667 121.667 63.752 117.864C67.6374 113.979 72.184 111.044 77.392 109.06C82.6827 107.076 88.304 106.084 94.256 106.084C98.3067 106.084 101.944 106.373 105.168 106.952C108.475 107.448 111.285 108.068 113.6 108.812C115.997 109.473 117.94 110.176 119.428 110.92C120.999 111.664 122.115 112.243 122.776 112.656L117.196 128.156C114.551 126.751 111.492 125.552 108.02 124.56C104.631 123.485 100.911 122.948 96.86 122.948Z" fill="#262626"/>
<path d="M145.734 108.068H165.078V194H145.734V108.068Z" fill="#262626"/>
<path d="M188.689 194V108.068H246.225V124.312H208.033V142.292H242.009V158.536H208.033V194H188.689Z" fill="#262626"/>
</svg>
