<?xml version="1.0" encoding="utf-8"?>
<svg version="1.1" id="Layer_1" xmlns="http://www.w3.org/2000/svg" xmlns:xlink="http://www.w3.org/1999/xlink" x="0px" y="0px"
	 viewBox="0 0 256 256" style="enable-background:new 0 0 256 256;" xml:space="preserve">
<style type="text/css">
	.st0{fill-rule:evenodd;clip-rule:evenodd;fill:#145A8C;}
</style>
<path class="st0" d="M127.5,256c-70.7,0-128-57.3-128-128S56.8,0,127.5,0s128,57.3,128,128S198.2,256,127.5,256z M118.6,132.7
	c0-7.1-0.3-12.4-1.1-15.7c-0.7-3.4-2-6.5-3.9-9.3c-1.9-2.8-4.8-5.1-8.5-6.9c-3.8-1.8-8.1-2.7-12.8-2.7c-9.2,0-17.1,4-23.7,11.9V66.6
	H48.1v112.6h20.5v-39.7c0-6.7,0.6-11.7,1.9-15.1c1.2-3.4,3.2-5.9,5.9-7.7c2.7-1.7,5.7-2.5,9.1-2.5c3,0,5.4,0.7,7.4,2
	c2,1.3,3.3,3.1,4.1,5.3c0.8,2.2,1.2,7.5,1.2,15.8v41.9h20.5V132.7z M200.9,133.7c0-7.2-0.4-12.5-1.1-16c-0.7-3.4-2-6.6-4-9.4
	c-1.9-2.8-4.8-5.1-8.7-7c-3.9-1.8-8.2-2.7-13-2.7c-9.3,0-17.3,4-24,12V66.6h-20.8v114.4h20.8v-40.3c0-6.8,0.6-11.9,1.9-15.3
	c1.3-3.5,3.2-6,6-7.8c2.7-1.7,5.8-2.6,9.2-2.6c3,0,5.5,0.7,7.5,2c2,1.3,3.4,3.1,4.2,5.4c0.8,2.3,1.2,7.6,1.2,16v42.5h20.8V133.7z"/>
</svg>
