<?xml version="1.0" encoding="utf-8"?>
<svg version="1.1" id="Layer_1" xmlns="http://www.w3.org/2000/svg" xmlns:xlink="http://www.w3.org/1999/xlink" x="0px" y="0px"
	 viewBox="0 0 256 256" style="enable-background:new 0 0 256 256;" xml:space="preserve">
<style type="text/css">
	.st0{fill-rule:evenodd;clip-rule:evenodd;fill:#145A8C;}
</style>
<g>
	<g>
		<path class="st0" d="M235.94,0H20.06C8.981,0,0,8.981,0,20.06V235.94C0,247.019,8.981,256,20.06,256H235.94
			c11.079,0,20.06-8.981,20.06-20.06V20.06C256,8.981,247.019,0,235.94,0z M76.896,220.179H38.209V96.955h38.687V220.179z
			 M57.552,79.761c-12.002,0-21.731-9.73-21.731-21.731c0-12.002,9.73-21.731,21.731-21.731s21.731,9.73,21.731,21.731
			C79.284,70.032,69.554,79.761,57.552,79.761z M218.746,220.012h-38.209c0,0,0-63.256,0-68.132c0-6.285,0.354-24.358-21.492-24.358
			c-21.846,0-20.537,25.123-20.537,36.776c0,11.653,0,55.714,0,55.714h-38.209V96.955h36.776c0,0,0,10.873,0,16.716
			c4.946-5.995,12.53-20.06,37.254-20.06c44.173,0,44.418,42.967,44.418,57.791S218.746,220.012,218.746,220.012z"/>
	</g>
</g>
</svg>
