<svg width="60" height="60" viewBox="0 0 60 60" fill="none" xmlns="http://www.w3.org/2000/svg">
<circle cx="30" cy="30" r="30" fill="#FF9B18"/>
<path d="M12.8544 30.712C12.8544 29.2187 13.0784 27.9173 13.5264 26.808C13.9957 25.6773 14.6037 24.7387 15.3504 23.992C16.097 23.2453 16.9504 22.68 17.9104 22.296C18.8917 21.912 19.8944 21.72 20.9184 21.72C23.3077 21.72 25.1957 22.456 26.5824 23.928C27.969 25.3787 28.6624 27.5227 28.6624 30.36C28.6624 30.6373 28.6517 30.9467 28.6304 31.288C28.609 31.608 28.5877 31.896 28.5664 32.152H17.7504C17.857 33.1333 18.3157 33.912 19.1264 34.488C19.937 35.064 21.025 35.352 22.3904 35.352C23.265 35.352 24.1184 35.2773 24.9504 35.128C25.8037 34.9573 26.497 34.7547 27.0304 34.52L27.6704 38.392C27.4144 38.52 27.073 38.648 26.6464 38.776C26.2197 38.904 25.7397 39.0107 25.2064 39.096C24.6944 39.2027 24.1397 39.288 23.5424 39.352C22.945 39.416 22.3477 39.448 21.7504 39.448C20.2357 39.448 18.913 39.224 17.7824 38.776C16.673 38.328 15.745 37.72 14.9984 36.952C14.273 36.1627 13.729 35.2347 13.3664 34.168C13.025 33.1013 12.8544 31.9493 12.8544 30.712ZM24.0544 28.888C24.033 28.4827 23.9584 28.088 23.8304 27.704C23.7237 27.32 23.5424 26.9787 23.2864 26.68C23.0517 26.3813 22.7424 26.136 22.3584 25.944C21.9957 25.752 21.537 25.656 20.9824 25.656C20.449 25.656 19.9904 25.752 19.6064 25.944C19.2224 26.1147 18.9024 26.3493 18.6464 26.648C18.3904 26.9467 18.1877 27.2987 18.0384 27.704C17.9104 28.088 17.8144 28.4827 17.7504 28.888H24.0544ZM32.9819 22.744C33.7925 22.5093 34.8379 22.296 36.1179 22.104C37.3979 21.8907 38.7419 21.784 40.1499 21.784C41.5792 21.784 42.7632 21.976 43.7019 22.36C44.6619 22.7227 45.4192 23.2453 45.9739 23.928C46.5285 24.6107 46.9232 25.4213 47.1579 26.36C47.3925 27.2987 47.5099 28.344 47.5099 29.496V39H42.7419V30.072C42.7419 28.536 42.5392 27.448 42.1339 26.808C41.7285 26.168 40.9712 25.848 39.8619 25.848C39.5205 25.848 39.1579 25.8693 38.7739 25.912C38.3899 25.9333 38.0485 25.9653 37.7499 26.008V39H32.9819V22.744Z" fill="white"/>
</svg>
