<svg width="60" height="60" viewBox="0 0 60 60" fill="none" xmlns="http://www.w3.org/2000/svg">
<circle cx="30" cy="30" r="30" fill="#FF9B18"/>
<path d="M26.3921 27.392C25.9655 27.2853 25.4641 27.1787 24.8881 27.072C24.3121 26.944 23.6935 26.88 23.0321 26.88C22.7335 26.88 22.3708 26.912 21.9441 26.976C21.5388 27.0187 21.2295 27.072 21.0161 27.136V40H16.2481V24.064C17.1015 23.7653 18.1041 23.488 19.2561 23.232C20.4295 22.9547 21.7308 22.816 23.1601 22.816C23.4161 22.816 23.7255 22.8373 24.0881 22.88C24.4508 22.9013 24.8135 22.944 25.1761 23.008C25.5388 23.0507 25.9015 23.1147 26.2641 23.2C26.6268 23.264 26.9361 23.3493 27.1921 23.456L26.3921 27.392ZM44.7561 39.424C43.9455 39.6587 42.9001 39.872 41.6201 40.064C40.3401 40.2773 38.9961 40.384 37.5881 40.384C36.1588 40.384 34.9641 40.192 34.0041 39.808C33.0655 39.424 32.3188 38.8907 31.7641 38.208C31.2095 37.504 30.8148 36.672 30.5801 35.712C30.3455 34.752 30.2281 33.696 30.2281 32.544V23.168H34.9961V31.968C34.9961 33.504 35.1988 34.6133 35.6041 35.296C36.0095 35.9787 36.7668 36.32 37.8761 36.32C38.2175 36.32 38.5801 36.3093 38.9641 36.288C39.3481 36.2453 39.6895 36.2027 39.9881 36.16V23.168H44.7561V39.424Z" fill="white"/>
</svg>
