<svg width="120" height="120" viewBox="0 0 120 120" fill="none" xmlns="http://www.w3.org/2000/svg">
<path d="M59.8873 120C42.9239 120 25.9605 119.906 8.99716 120C4.49858 120 0.656043 116.904 0.0937204 112.588C0 112.119 0 111.65 0 111.274C0 77.1227 0 42.9711 0 8.72557C0 3.84676 3.65509 0.0938233 8.62227 0C14.0581 0 19.4938 0 24.9296 0C53.6081 0 82.3244 0 111.003 0C115.689 0 118.782 3.18999 119.531 6.09851C119.719 6.94292 119.906 7.78733 119.906 8.63174C119.906 42.8772 119.906 77.1227 119.906 111.368C119.906 116.247 116.251 120 111.378 120C105.005 120 98.5938 120 92.2209 120C81.443 120 70.6652 120 59.8873 120ZM64.011 52.7287C64.011 50.2893 64.011 48.2252 64.011 46.2549C64.011 45.2228 63.7299 44.9414 62.6989 44.9414C57.8255 45.0352 52.8583 45.0352 47.9848 44.9414C46.7665 44.9414 46.579 45.3167 46.579 46.4425C46.579 64.6443 46.579 82.9398 46.579 101.142C46.579 102.267 46.8602 102.643 47.9848 102.643C53.0457 102.549 58.2004 102.549 63.2613 102.643C64.3859 102.643 64.6671 102.267 64.6671 101.142C64.6671 91.9468 64.5733 82.7522 64.6671 73.6513C64.6671 71.7748 64.7608 69.8045 65.1357 67.9281C65.7917 64.0813 67.5724 60.8913 71.7898 59.8593C73.0082 59.5778 74.414 59.484 75.6323 59.484C79.9435 59.5778 82.5677 61.5481 83.5986 65.7701C84.0672 68.0219 84.3483 70.4613 84.3483 72.8069C84.4421 82.283 84.4421 91.6654 84.3483 101.142C84.3483 102.267 84.6295 102.643 85.8479 102.643C90.9088 102.549 96.0634 102.549 101.124 102.643C102.249 102.643 102.53 102.267 102.53 101.235C102.53 91.1024 102.53 80.9695 102.53 70.7428C102.53 66.6145 102.343 62.4863 101.405 58.3581C100.281 53.5731 98.219 49.3511 93.9078 46.5364C91.2837 44.8475 88.2846 44.0031 85.1918 43.6278C81.3493 43.2525 77.6005 43.1587 73.9454 44.5661C69.6342 46.1611 66.4478 48.7881 64.011 52.7287ZM17.6194 73.7451C17.6194 82.846 17.6194 92.0407 17.6194 101.142C17.6194 102.267 17.9943 102.549 19.0252 102.549C24.1799 102.549 29.2408 102.549 34.3954 102.549C35.4263 102.549 35.8012 102.267 35.8012 101.235C35.8012 82.846 35.8012 64.5504 35.8012 46.1611C35.8012 45.0352 35.4263 44.8475 34.3954 44.8475C29.3345 44.8475 24.2736 44.8475 19.2127 44.8475C17.6194 44.8475 17.6194 44.8475 17.6194 46.4425C17.6194 55.5434 17.6194 64.6442 17.6194 73.7451ZM26.6166 37.154C32.4273 37.154 37.1133 32.5567 37.1133 26.8335C37.1133 21.0164 32.521 16.3253 26.7103 16.3253C20.8996 16.3253 16.2136 20.9226 16.2136 26.7396C16.2136 32.5567 20.8059 37.154 26.6166 37.154Z" fill="#2867B2"/>
</svg>
