<?xml version="1.0" encoding="utf-8"?>
<!-- Generator: Adobe Illustrator 23.1.0, SVG Export Plug-In . SVG Version: 6.00 Build 0)  -->
<svg version="1.1" id="Layer_1" xmlns="http://www.w3.org/2000/svg" xmlns:xlink="http://www.w3.org/1999/xlink" x="0px" y="0px"
	 viewBox="0 0 256 256" style="enable-background:new 0 0 256 256;" xml:space="preserve">
<style type="text/css">
	.st0{fill:#145A8C;}
</style>
<path class="st0" d="M128,0C57.307,0,0,57.307,0,128c0,70.692,57.307,128,128,128c70.692,0,128-57.308,128-128
	C256,57.307,198.692,0,128,0z M84.48,74.667h87.04c2.578,0,5.045,0.477,7.318,1.346l-43.537,42.76
	c-4.035,3.962-10.576,3.962-14.611,0L77.156,76.015C79.43,75.144,81.9,74.667,84.48,74.667z M192,156.587
	c0,11.311-9.169,20.48-20.48,20.48H84.48c-11.311,0-20.48-9.169-20.48-20.48v-61.44c0-3.221,0.743-6.268,2.068-8.979l47.316,46.473
	c8.07,7.925,21.153,7.925,29.222,0l47.323-46.478c1.326,2.712,2.07,5.762,2.07,8.984V156.587z"/>
</svg>
